<?xml version="1.0" encoding="UTF-8"?><svg id="Ebene_2" xmlns="http://www.w3.org/2000/svg" viewBox="0 0 142.78 124.93"><defs><style>.cls-1{fill:#20201e;stroke-width:0px;}</style></defs><g id="Ebene_1-2"><path class="cls-1" d="m88.51,11c1.03,0,1.93.65,2.25,1.63l2.9,8.7c1.5,4.49,5.7,7.52,10.44,7.52h20.83c3.78,0,6.85,3.07,6.85,6.85v71.39c0,3.78-3.07,6.85-6.85,6.85H17.85c-3.78,0-6.85-3.07-6.85-6.85V35.69c0-3.78,3.07-6.85,6.85-6.85h20.83c4.73,0,8.94-3.03,10.44-7.52l2.91-8.72c.32-.96,1.22-1.61,2.25-1.61h34.24m-17.12,98.16c20.83,0,37.77-16.94,37.77-37.77s-16.94-37.77-37.77-37.77-37.77,16.94-37.77,37.77,16.94,37.77,37.77,37.77M88.51,0h-34.24c-5.77,0-10.88,3.68-12.69,9.15l-2.9,8.7h-20.83C8,17.85,0,25.85,0,35.69v71.39c0,9.84,8,17.85,17.85,17.85h107.08c9.84,0,17.85-8,17.85-17.85V35.69c0-9.84-8-17.85-17.85-17.85h-20.83l-2.9-8.7c-1.81-5.47-6.92-9.15-12.69-9.15h0Zm-17.12,98.16c-14.79,0-26.77-11.99-26.77-26.77s11.99-26.77,26.77-26.77,26.77,11.99,26.77,26.77-11.99,26.77-26.77,26.77h0Z"/></g></svg>