<?xml version="1.0" encoding="UTF-8"?><svg id="Ebene_2" xmlns="http://www.w3.org/2000/svg" viewBox="0 0 142.78 124.93"><defs><style>.cls-1{fill:#20201e;stroke-width:0px;}</style></defs><g id="Ebene_1-2"><path class="cls-1" d="m41.58,9.15l-2.9,8.7h-20.83C8,17.85,0,25.85,0,35.69v71.39c0,9.84,8,17.85,17.85,17.85h107.08c9.84,0,17.85-8,17.85-17.85V35.69c0-9.84-8-17.85-17.85-17.85h-20.83l-2.9-8.7c-1.81-5.47-6.92-9.15-12.69-9.15h-34.24c-5.77,0-10.88,3.68-12.69,9.15Zm29.81,35.47c14.79,0,26.77,11.99,26.77,26.77s-11.99,26.77-26.77,26.77-26.77-11.99-26.77-26.77,11.99-26.77,26.77-26.77Z"/></g></svg>