<?xml version="1.0" encoding="UTF-8"?><svg id="Ebene_2" xmlns="http://www.w3.org/2000/svg" viewBox="0 0 134.3 113.93"><defs><style>.cls-1{fill:#20201e;stroke-width:0px;}</style></defs><g id="Ebene_1-2"><path class="cls-1" d="m48.82,28.37h73.34c6.7,0,12.15-5.45,12.15-12.15s-5.45-12.15-12.15-12.15H48.82c-6.7,0-12.15,5.45-12.15,12.15s5.45,12.15,12.15,12.15Z"/><rect class="cls-1" y="81.49" width="32.45" height="32.45" rx="10.11" ry="10.11"/><path class="cls-1" d="m10.11,40.74h12.22c5.58,0,10.11,4.53,10.11,10.11v12.22c0,5.58-4.53,10.11-10.11,10.11h-12.22c-5.58,0-10.11-4.53-10.11-10.11v-12.22c0-5.58,4.53-10.11,10.11-10.11Z"/><path class="cls-1" d="m122.16,44.82H48.82c-6.7,0-12.15,5.45-12.15,12.15s5.45,12.15,12.15,12.15h73.34c6.7,0,12.15-5.45,12.15-12.15s-5.45-12.15-12.15-12.15Z"/><rect class="cls-1" width="32.45" height="32.45" rx="10.11" ry="10.11"/><path class="cls-1" d="m122.16,85.56H48.82c-6.7,0-12.15,5.45-12.15,12.15s5.45,12.15,12.15,12.15h73.34c6.7,0,12.15-5.45,12.15-12.15s-5.45-12.15-12.15-12.15Z"/></g></svg>