<?xml version="1.0" encoding="UTF-8"?><svg id="Ebene_2" xmlns="http://www.w3.org/2000/svg" viewBox="0 0 136.3 115.93"><defs><style>.cls-1{fill:#09090b;stroke-width:0px;}</style></defs><g id="Ebene_1-2"><path class="cls-1" d="m123.16,30.37H49.82c-7.25,0-13.15-5.9-13.15-13.15s5.9-13.15,13.15-13.15h73.34c7.25,0,13.15,5.9,13.15,13.15s-5.9,13.15-13.15,13.15ZM49.82,14.07c-1.74,0-3.15,1.41-3.15,3.15s1.41,3.15,3.15,3.15h73.34c1.74,0,3.15-1.41,3.15-3.15s-1.41-3.15-3.15-3.15H49.82Z"/><path class="cls-1" d="m23.33,115.93h-12.22c-6.13,0-11.11-4.98-11.11-11.11v-12.22c0-6.13,4.98-11.11,11.11-11.11h12.22c6.13,0,11.11,4.98,11.11,11.11v12.22c0,6.13-4.98,11.11-11.11,11.11Zm-12.22-24.45c-.62,0-1.11.49-1.11,1.11v12.22c0,.62.49,1.11,1.11,1.11h12.22c.62,0,1.11-.49,1.11-1.11v-12.22c0-.62-.49-1.11-1.11-1.11h-12.22Z"/><path class="cls-1" d="m23.33,75.19h-12.22c-6.13,0-11.11-4.98-11.11-11.11v-12.22c0-6.13,4.98-11.11,11.11-11.11h12.22c6.13,0,11.11,4.98,11.11,11.11v12.22c0,6.13-4.98,11.11-11.11,11.11Zm-12.22-24.45c-.62,0-1.11.49-1.11,1.11v12.22c0,.62.49,1.11,1.11,1.11h12.22c.62,0,1.11-.49,1.11-1.11v-12.22c0-.62-.49-1.11-1.11-1.11h-12.22Z"/><path class="cls-1" d="m123.16,71.11H49.82c-7.25,0-13.15-5.9-13.15-13.15s5.9-13.15,13.15-13.15h73.34c7.25,0,13.15,5.9,13.15,13.15s-5.9,13.15-13.15,13.15Zm-73.34-16.3c-1.74,0-3.15,1.41-3.15,3.15s1.41,3.15,3.15,3.15h73.34c1.74,0,3.15-1.41,3.15-3.15s-1.41-3.15-3.15-3.15H49.82Z"/><path class="cls-1" d="m23.33,34.45h-12.22c-6.13,0-11.11-4.98-11.11-11.11v-12.22C0,4.98,4.98,0,11.11,0h12.22c6.13,0,11.11,4.98,11.11,11.11v12.22c0,6.13-4.98,11.11-11.11,11.11ZM11.11,10c-.62,0-1.11.49-1.11,1.11v12.22c0,.62.49,1.11,1.11,1.11h12.22c.62,0,1.11-.49,1.11-1.11v-12.22c0-.62-.49-1.11-1.11-1.11h-12.22Z"/><path class="cls-1" d="m123.16,111.86H49.82c-7.25,0-13.15-5.9-13.15-13.15s5.9-13.15,13.15-13.15h73.34c7.25,0,13.15,5.9,13.15,13.15s-5.9,13.15-13.15,13.15Zm-73.34-16.3c-1.74,0-3.15,1.41-3.15,3.15s1.41,3.15,3.15,3.15h73.34c1.74,0,3.15-1.41,3.15-3.15s-1.41-3.15-3.15-3.15H49.82Z"/></g></svg>