<svg id="eLcq5Q4CIfi1" xmlns="http://www.w3.org/2000/svg" xmlns:xlink="http://www.w3.org/1999/xlink" viewBox="0 0 340.09 340.09" shape-rendering="geometricPrecision" text-rendering="geometricPrecision">
<style><![CDATA[
#eLcq5Q4CIfi2_ts {animation: eLcq5Q4CIfi2_ts__ts 3000ms linear infinite normal forwards}@keyframes eLcq5Q4CIfi2_ts__ts { 0% {transform: translate(170.044998px,170.044998px) scale(0.834475,0.834475)} 23.333333% {transform: translate(170.044998px,170.044998px) scale(1,1)} 46.666667% {transform: translate(170.044998px,170.044998px) scale(0.834475,0.834475)} 70% {transform: translate(170.044998px,170.044998px) scale(1,1)} 93.333333% {transform: translate(170.044998px,170.044998px) scale(0.834475,0.834475)} 100% {transform: translate(170.044998px,170.044998px) scale(0.834475,0.834475)}}
]]></style>
<g id="eLcq5Q4CIfi2_ts" transform="translate(170.044998,170.044998) scale(0.834475,0.834475)"><g transform="translate(-170.044998,-170.044998)"><g clip-path="url(#eLcq5Q4CIfi55)"><g><polygon points="224.89,163.39 216.58,156.21 224.89,156.21 224.89,163.39" fill="#7baf43" stroke-width="0"/><polygon points="224.89,205.3 168.02,156.21 216.58,156.21 224.89,163.39 224.89,205.3" fill="#88b444" stroke-width="0"/><polygon points="224.89,216.87 213.16,230.46 205.5,230.46 150.64,183.12 150.64,169.8 162.37,156.21 168.02,156.21 224.89,205.3 224.89,216.87" fill="#97b944" stroke-width="0"/><polygon points="156.94,230.46 150.64,225.03 150.64,183.12 205.5,230.46 156.94,230.46" fill="#a6bf45" stroke-width="0"/><polygon points="150.64,225.03 156.94,230.46 150.64,230.46 150.64,225.03" fill="#b6c647" stroke-width="0"/><polygon points="270.79,119.19 260.83,110.59 270.79,110.59 270.79,119.19" fill="#67a743" stroke-width="0"/><polygon points="270.79,161.09 212.27,110.59 260.83,110.59 270.79,119.19 270.79,161.09" fill="#70aa43" stroke-width="0"/><polygon points="270.79,203 163.71,110.59 212.27,110.59 270.79,161.09 270.79,203" fill="#7baf43" stroke-width="0"/><polygon points="270.79,235.9 266.34,241.06 130,123.4 141.06,110.59 163.71,110.59 270.79,203 270.79,235.9" fill="#88b444" stroke-width="0"/><polygon points="266.34,241.06 245.61,265.08 113.19,150.8 113.19,142.88 130,123.4 266.34,241.06" fill="#97b944" stroke-width="0"/><polygon points="245.61,265.08 242.93,268.19 200.65,268.19 113.19,192.71 113.19,150.8 245.61,265.08" fill="#a6bf45" stroke-width="0"/><polygon points="152.09,268.19 113.19,234.62 113.19,192.71 200.65,268.19 152.09,268.19" fill="#b6c647" stroke-width="0"/><polygon points="113.19,234.62 152.09,268.19 113.19,268.19 113.19,234.62" fill="#c7ce49" stroke-width="0"/><polygon points="183.26,197.11 182.14,198.42 168.36,198.42 163.8,194.48 163.8,180.26 164.93,178.95 183.26,178.95 183.26,197.11" fill="#97b944" stroke-width="0"/><polygon points="163.8,194.48 168.36,198.42 163.8,198.42 163.8,194.48" fill="#a6bf45" stroke-width="0"/><polygon points="315.95,74.35 305.62,65.43 315.95,65.43 315.95,74.35" fill="#5da442" stroke-width="0"/><polygon points="315.95,116.25 257.06,65.43 305.62,65.43 315.95,74.35 315.95,116.25" fill="#60a542" stroke-width="0"/><polygon points="315.95,158.16 208.5,65.43 257.06,65.43 315.95,116.25 315.95,158.16" fill="#67a743" stroke-width="0"/><polygon points="315.95,200.07 159.94,65.43 208.5,65.43 315.95,158.16 315.95,200.07" fill="#70aa43" stroke-width="0"/><polygon points="315.95,241.97 112.53,66.42 113.38,65.43 159.94,65.43 315.95,200.07 315.95,241.97" fill="#7baf43" stroke-width="0"/><polygon points="315.95,260.8 304.54,274.03 91.8,90.43 112.53,66.42 315.95,241.97 315.95,260.8" fill="#88b444" stroke-width="0"/><rect width="31.73" height="281" rx="0" ry="0" transform="matrix(.653288-.757109 0.757109 0.653288 71.063434 114.440341)" fill="#97b944" stroke-width="0"/><polygon points="283.81,298.05 270.6,313.35 252.98,313.35 68.03,153.74 68.03,117.97 71.07,114.45 283.81,298.05" fill="#a6bf45" stroke-width="0"/><polygon points="204.42,313.35 68.03,195.64 68.03,153.74 252.98,313.35 204.42,313.35" fill="#b6c647" stroke-width="0"/><polygon points="155.86,313.35 68.03,237.55 68.03,195.64 204.42,313.35 155.86,313.35" fill="#c7ce49" stroke-width="0"/><polygon points="107.3,313.35 68.03,279.46 68.03,237.55 155.86,313.35 107.3,313.35" fill="#d8d54b" stroke-width="0"/><polygon points="68.03,279.46 107.3,313.35 68.03,313.35 68.03,279.46" fill="#e9dd4f" stroke-width="0"/><polygon points="186.95,46.83 163.34,26.45 186.95,26.45 186.95,46.83" fill="#67a743" stroke-width="0"/><polygon points="186.95,54.14 169.84,73.97 114.78,26.45 163.34,26.45 186.95,46.83 186.95,54.14" fill="#70aa43" stroke-width="0"/><polygon points="169.84,73.97 149.11,97.99 77.78,36.43 86.4,26.45 114.78,26.45 169.84,73.97" fill="#7baf43" stroke-width="0"/><rect width="31.73" height="94.22" rx="0" ry="0" transform="matrix(.653288-.757109 0.757109 0.653288 57.05058 60.442014)" fill="#88b444" stroke-width="0"/><rect width="31.73" height="94.22" rx="0" ry="0" transform="matrix(.653288-.757109 0.757109 0.653288 36.32368 84.458873)" fill="#97b944" stroke-width="0"/><polygon points="107.65,146.02 86.93,170.04 23.71,115.49 23.71,99.08 36.33,84.47 107.65,146.02" fill="#a6bf45" stroke-width="0"/><polygon points="86.93,170.04 74.71,184.19 54.76,184.19 23.71,157.39 23.71,115.49 86.93,170.04" fill="#b6c647" stroke-width="0"/><polygon points="23.71,157.39 54.76,184.19 23.71,184.19 23.71,157.39" fill="#c7ce49" stroke-width="0"/><polygon points="340.09,53.27 278.36,0 340.09,0 340.09,53.27" fill="#5da442" stroke-width="0"/><polygon points="340.09,95.17 229.8,0 278.36,0 340.09,53.27 340.09,95.17" fill="#5da442" stroke-width="0"/><polygon points="340.09,137.08 181.25,0 229.8,0 340.09,95.17 340.09,137.08" fill="#60a542" stroke-width="0"/><polygon points="340.09,178.99 132.69,0 181.25,0 340.09,137.08 340.09,178.99" fill="#67a743" stroke-width="0"/><polygon points="340.09,220.89 84.13,0 132.69,0 340.09,178.99 340.09,220.89" fill="#70aa43" stroke-width="0"/><polygon points="340.09,262.8 35.57,0 84.13,0 340.09,220.89 340.09,262.8" fill="#7baf43" stroke-width="0"/><polygon points="340.09,304.71 8.75,18.76 24.94,0 35.57,0 340.09,262.8 340.09,304.71" fill="#88b444" stroke-width="0"/><polygon points="340.09,311.18 322.56,331.49 0,53.12 0,28.9 8.75,18.76 340.09,304.71 340.09,311.18" fill="#97b944" stroke-width="0"/><polygon points="322.56,331.49 315.14,340.09 283.96,340.09 0,95.02 0,53.12 322.56,331.49" fill="#a6bf45" stroke-width="0"/><polygon points="235.4,340.09 0,136.93 0,95.02 283.96,340.09 235.4,340.09" fill="#b6c647" stroke-width="0"/><polygon points="186.84,340.09 0,178.84 0,136.93 235.4,340.09 186.84,340.09" fill="#c7ce49" stroke-width="0"/><polygon points="138.28,340.09 0,220.74 0,178.84 186.84,340.09 138.28,340.09" fill="#d8d54b" stroke-width="0"/><polygon points="89.72,340.09 0,262.65 0,220.74 138.28,340.09 89.72,340.09" fill="#e9dd4f" stroke-width="0"/><polygon points="41.17,340.09 0,304.56 0,262.65 89.72,340.09 41.17,340.09" fill="#fbe453" stroke-width="0"/><polygon points="0,304.56 41.17,340.09 0,340.09 0,304.56" fill="#fbe453" stroke-width="0"/></g><clipPath id="eLcq5Q4CIfi55"><path d="M268.69,0L71.4,0C31.96,0,0,31.96,0,71.4v197.29c0,39.43,31.96,71.4,71.4,71.4h197.29c39.43,0,71.4-31.96,71.4-71.4v-197.29c0-39.44-31.97-71.4-71.4-71.4ZM40.17,184.19c-4.59,0-8.97-1.96-12.01-5.39-3.02-3.4-4.45-7.93-3.92-12.43C33.12,91.25,94.32,32.54,169.76,26.78c4.41-.33,8.8,1.2,12.05,4.21c3.27,3.03,5.14,7.32,5.14,11.77c0,8.31-6.51,15.33-14.83,15.97v0C112,63.37,63.19,110.18,56.07,170.04c-.96,8.07-7.8,14.15-15.9,14.15ZM191.99,313.35c-68.35,0-123.96-55.61-123.96-123.96s55.61-123.96,123.96-123.96s123.96,55.61,123.96,123.96-55.61,123.96-123.96,123.96Zm-8.73-124.66c0,5.37-4.37,9.73-9.73,9.73s-9.73-4.37-9.73-9.73s4.37-9.73,9.73-9.73s9.73,4.37,9.73,9.73Zm8.73-78.1c-43.45,0-78.8,35.35-78.8,78.8s35.35,78.8,78.8,78.8s78.8-35.35,78.8-78.8-35.35-78.8-78.8-78.8Zm-4.22,119.88c-20.47,0-37.13-16.65-37.13-37.13s16.65-37.13,37.13-37.13s37.13,16.65,37.13,37.13-16.65,37.13-37.13,37.13Z" fill="none" stroke-width="0"/></clipPath></g></g></g></svg>
