<?xml version="1.0" encoding="UTF-8"?><svg id="Ebene_2" xmlns="http://www.w3.org/2000/svg" viewBox="0 0 107.27 105.35"><defs><style>.cls-1{fill:#20201e;stroke-width:0px;}</style></defs><g id="Ebene_1-2"><path class="cls-1" d="m61.7,14.22c-25.12,0-45.57,20.44-45.57,45.57s20.44,45.57,45.57,45.57,45.57-20.44,45.57-45.57S86.83,14.22,61.7,14.22Zm0,74.53c-15.97,0-28.97-12.99-28.97-28.97s12.99-28.97,28.97-28.97,28.97,12.99,28.97,28.97-12.99,28.97-28.97,28.97Z"/><path class="cls-1" d="m60.15,47.59c-7.53,0-13.65,6.12-13.65,13.65s6.12,13.65,13.65,13.65,13.65-6.12,13.65-13.65-6.12-13.65-13.65-13.65Zm-5.23,15.52c-1.97,0-3.58-1.61-3.58-3.58s1.61-3.58,3.58-3.58,3.58,1.61,3.58,3.58-1.61,3.58-3.58,3.58Z"/><path class="cls-1" d="m54.4,11.76c3.06-.24,5.45-2.82,5.45-5.87,0-1.64-.69-3.21-1.89-4.33-1.19-1.11-2.81-1.67-4.43-1.55C25.8,2.13,3.3,23.71.04,51.33c-.19,1.65.33,3.32,1.44,4.57,1.12,1.26,2.73,1.98,4.41,1.98,2.98,0,5.49-2.23,5.84-5.2C14.36,30.67,32.3,13.47,54.4,11.76Z"/></g></svg>