<?xml version="1.0" encoding="UTF-8"?><svg id="Ebene_2" xmlns="http://www.w3.org/2000/svg" viewBox="0 0 125.01 125.01"><defs><style>.cls-1{fill:#20201e;stroke-width:0px;}</style></defs><g id="Ebene_1-2"><path class="cls-1" d="m63.79,65.78c-1.97,0-3.58,1.61-3.58,3.58s1.61,3.58,3.58,3.58,3.58-1.6,3.58-3.58-1.61-3.58-3.58-3.58Z"/><path class="cls-1" d="m98.77,0H26.25C11.75,0,0,11.75,0,26.25v72.52c0,14.49,11.75,26.25,26.25,26.25h72.52c14.49,0,26.25-11.75,26.25-26.25V26.25c0-14.49-11.75-26.25-26.25-26.25ZM14.77,67.7c-1.69,0-3.3-.72-4.41-1.98-1.11-1.25-1.64-2.91-1.44-4.57,3.26-27.61,25.76-49.19,53.49-51.31,1.62-.12,3.23.44,4.43,1.55,1.2,1.11,1.89,2.69,1.89,4.33,0,3.05-2.39,5.64-5.45,5.87-22.1,1.71-40.04,18.91-42.66,40.92-.35,2.97-2.87,5.2-5.84,5.2Zm55.81,47.48c-25.12,0-45.57-20.44-45.57-45.57s20.44-45.57,45.57-45.57,45.57,20.44,45.57,45.57-20.44,45.57-45.57,45.57Z"/><path class="cls-1" d="m70.57,40.65c-15.97,0-28.97,12.99-28.97,28.97s12.99,28.97,28.97,28.97,28.97-12.99,28.97-28.97-12.99-28.97-28.97-28.97Zm-1.55,44.07c-7.52,0-13.65-6.12-13.65-13.65s6.12-13.65,13.65-13.65,13.65,6.12,13.65,13.65-6.12,13.65-13.65,13.65Z"/></g></svg>