<?xml version="1.0" encoding="UTF-8"?><svg id="Ebene_2" xmlns="http://www.w3.org/2000/svg" viewBox="0 0 15 16"><defs><style>.cls-1{fill:#d3d3d3;stroke-width:0px;}</style></defs><g id="Ebene_1-2"><path class="cls-1" d="M14,.5c.28,0,.5.22.5.5v14c0,.28-.22.5-.5.5s-.5-.22-.5-.5V1c0-.28.22-.5.5-.5M14,0c-.55,0-1,.45-1,1v14c0,.55.45,1,1,1s1-.45,1-1V1c0-.55-.45-1-1-1h0Z"/><path class="cls-1" d="M10.75,3.5c.28,0,.5.22.5.5v11c0,.28-.22.5-.5.5s-.5-.22-.5-.5V4c0-.28.22-.5.5-.5M10.75,3c-.55,0-1,.45-1,1v11c0,.55.45,1,1,1s1-.45,1-1V4c0-.55-.45-1-1-1h0Z"/><path class="cls-1" d="M7.5,6.5c.28,0,.5.22.5.5v8c0,.28-.22.5-.5.5s-.5-.22-.5-.5V7c0-.28.22-.5.5-.5M7.5,6c-.55,0-1,.45-1,1v8c0,.55.45,1,1,1s1-.45,1-1V7c0-.55-.45-1-1-1h0Z"/><path class="cls-1" d="M4.25,9.5c.28,0,.5.22.5.5v5c0,.28-.22.5-.5.5s-.5-.22-.5-.5v-5c0-.28.22-.5.5-.5M4.25,9c-.55,0-1,.45-1,1v5c0,.55.45,1,1,1s1-.45,1-1v-5c0-.55-.45-1-1-1h0Z"/><path class="cls-1" d="M1,15.75c-.41,0-.75-.34-.75-.75v-2c0-.41.34-.75.75-.75s.75.34.75.75v2c0,.41-.34.75-.75.75Z"/><path class="cls-1" d="M1,12.5c.28,0,.5.22.5.5v2c0,.28-.22.5-.5.5s-.5-.22-.5-.5v-2c0-.28.22-.5.5-.5M1,12c-.55,0-1,.45-1,1v2c0,.55.45,1,1,1s1-.45,1-1v-2c0-.55-.45-1-1-1h0Z"/></g></svg>